<svg xmlns="http://www.w3.org/2000/svg" viewBox="0 0 1600 1000" preserveAspectRatio="xMidYMid slice" role="img" aria-label="Geniş kumsal (temsili illüstrasyon)"><title>Geniş kumsal — temsili illüstrasyon</title><defs><linearGradient id="sky" x1="0" y1="0" x2="0" y2="1"><stop offset="0" stop-color="#5fb2e6"/><stop offset="1" stop-color="#cdeefa"/></linearGradient><linearGradient id="sea" x1="0" y1="0" x2="0" y2="1"><stop offset="0" stop-color="#22b8c2"/><stop offset="1" stop-color="#118fa6"/></linearGradient><linearGradient id="sand" x1="0" y1="0" x2="0" y2="1"><stop offset="0" stop-color="#f6e3bf"/><stop offset="1" stop-color="#ecd09f"/></linearGradient></defs><rect width="1600" height="1000" fill="url(#sky)"/><circle cx="1340" cy="150" r="144.0" fill="#fffbe6" opacity=".18"/><circle cx="1340" cy="150" r="60" fill="#fffef5"/><path d="M0 1000 L0 499 Q67 499 133 493 T267 488 Q333 488 400 472 T533 457 Q600 457 667 441 T800 425 Q867 425 933 455 T1067 485 Q1133 485 1200 486 T1333 488 Q1400 488 1467 481 T1600 475 L1600 1000 Z" fill="#9fb9c6"/><rect y="500" width="1600" height="260" fill="url(#sea)"/><path d="M741 602 q18 -6 36 0" stroke="#e9ffff" stroke-width="2.5" fill="none" opacity=".45" stroke-linecap="round"/><path d="M1386 521 q18 -6 36 0" stroke="#e9ffff" stroke-width="2.5" fill="none" opacity=".45" stroke-linecap="round"/><path d="M1437 538 q22 -6 43 0" stroke="#e9ffff" stroke-width="2.5" fill="none" opacity=".45" stroke-linecap="round"/><path d="M987 529 q16 -6 33 0" stroke="#e9ffff" stroke-width="2.5" fill="none" opacity=".45" stroke-linecap="round"/><path d="M1126 619 q42 -6 84 0" stroke="#e9ffff" stroke-width="2.5" fill="none" opacity=".45" stroke-linecap="round"/><path d="M251 572 q14 -6 29 0" stroke="#e9ffff" stroke-width="2.5" fill="none" opacity=".45" stroke-linecap="round"/><path d="M810 723 q55 -6 110 0" stroke="#e9ffff" stroke-width="2.5" fill="none" opacity=".45" stroke-linecap="round"/><path d="M1239 604 q40 -6 79 0" stroke="#e9ffff" stroke-width="2.5" fill="none" opacity=".45" stroke-linecap="round"/><path d="M163 584 q33 -6 66 0" stroke="#e9ffff" stroke-width="2.5" fill="none" opacity=".45" stroke-linecap="round"/><path d="M1161 613 q17 -6 34 0" stroke="#e9ffff" stroke-width="2.5" fill="none" opacity=".45" stroke-linecap="round"/><path d="M427 566 q19 -6 37 0" stroke="#e9ffff" stroke-width="2.5" fill="none" opacity=".45" stroke-linecap="round"/><path d="M1295 564 q35 -6 70 0" stroke="#e9ffff" stroke-width="2.5" fill="none" opacity=".45" stroke-linecap="round"/><path d="M1407 532 q17 -6 33 0" stroke="#e9ffff" stroke-width="2.5" fill="none" opacity=".45" stroke-linecap="round"/><path d="M787 525 q17 -6 33 0" stroke="#e9ffff" stroke-width="2.5" fill="none" opacity=".45" stroke-linecap="round"/><path d="M1450 545 q24 -6 48 0" stroke="#e9ffff" stroke-width="2.5" fill="none" opacity=".45" stroke-linecap="round"/><path d="M194 647 q55 -6 109 0" stroke="#e9ffff" stroke-width="2.5" fill="none" opacity=".45" stroke-linecap="round"/><path d="M325 522 q9 -6 19 0" stroke="#e9ffff" stroke-width="2.5" fill="none" opacity=".45" stroke-linecap="round"/><path d="M864 524 q10 -6 19 0" stroke="#e9ffff" stroke-width="2.5" fill="none" opacity=".45" stroke-linecap="round"/><path d="M795 723 q45 -6 90 0" stroke="#e9ffff" stroke-width="2.5" fill="none" opacity=".45" stroke-linecap="round"/><path d="M637 661 q21 -6 43 0" stroke="#e9ffff" stroke-width="2.5" fill="none" opacity=".45" stroke-linecap="round"/><path d="M928 558 q26 -6 53 0" stroke="#e9ffff" stroke-width="2.5" fill="none" opacity=".45" stroke-linecap="round"/><path d="M1533 532 q21 -6 41 0" stroke="#e9ffff" stroke-width="2.5" fill="none" opacity=".45" stroke-linecap="round"/><path d="M970 553 q17 -6 33 0" stroke="#e9ffff" stroke-width="2.5" fill="none" opacity=".45" stroke-linecap="round"/><path d="M1592 740 q30 -6 59 0" stroke="#e9ffff" stroke-width="2.5" fill="none" opacity=".45" stroke-linecap="round"/><path d="M1129 729 q35 -6 71 0" stroke="#e9ffff" stroke-width="2.5" fill="none" opacity=".45" stroke-linecap="round"/><path d="M978 529 q16 -6 32 0" stroke="#e9ffff" stroke-width="2.5" fill="none" opacity=".45" stroke-linecap="round"/><path d="M1079 650 q50 -6 100 0" stroke="#e9ffff" stroke-width="2.5" fill="none" opacity=".45" stroke-linecap="round"/><path d="M139 596 q42 -6 84 0" stroke="#e9ffff" stroke-width="2.5" fill="none" opacity=".45" stroke-linecap="round"/><path d="M935 619 q30 -6 59 0" stroke="#e9ffff" stroke-width="2.5" fill="none" opacity=".45" stroke-linecap="round"/><path d="M1578 646 q17 -6 34 0" stroke="#e9ffff" stroke-width="2.5" fill="none" opacity=".45" stroke-linecap="round"/><path d="M1279 592 q27 -6 54 0" stroke="#e9ffff" stroke-width="2.5" fill="none" opacity=".45" stroke-linecap="round"/><path d="M341 618 q26 -6 53 0" stroke="#e9ffff" stroke-width="2.5" fill="none" opacity=".45" stroke-linecap="round"/><path d="M142 658 q22 -6 43 0" stroke="#e9ffff" stroke-width="2.5" fill="none" opacity=".45" stroke-linecap="round"/><path d="M1255 526 q24 -6 49 0" stroke="#e9ffff" stroke-width="2.5" fill="none" opacity=".45" stroke-linecap="round"/><path d="M1292 629 q43 -6 86 0" stroke="#e9ffff" stroke-width="2.5" fill="none" opacity=".45" stroke-linecap="round"/><path d="M397 682 q39 -6 79 0" stroke="#e9ffff" stroke-width="2.5" fill="none" opacity=".45" stroke-linecap="round"/><path d="M370 732 q45 -6 91 0" stroke="#e9ffff" stroke-width="2.5" fill="none" opacity=".45" stroke-linecap="round"/><path d="M597 709 q40 -6 81 0" stroke="#e9ffff" stroke-width="2.5" fill="none" opacity=".45" stroke-linecap="round"/><path d="M1068 558 q33 -6 65 0" stroke="#e9ffff" stroke-width="2.5" fill="none" opacity=".45" stroke-linecap="round"/><path d="M414 531 q30 -6 59 0" stroke="#e9ffff" stroke-width="2.5" fill="none" opacity=".45" stroke-linecap="round"/><path d="M276 728 q79 -6 157 0" stroke="#e9ffff" stroke-width="2.5" fill="none" opacity=".45" stroke-linecap="round"/><path d="M970 523 q9 -6 18 0" stroke="#e9ffff" stroke-width="2.5" fill="none" opacity=".45" stroke-linecap="round"/><path d="M334 606 q35 -6 70 0" stroke="#e9ffff" stroke-width="2.5" fill="none" opacity=".45" stroke-linecap="round"/><path d="M1546 598 q18 -6 35 0" stroke="#e9ffff" stroke-width="2.5" fill="none" opacity=".45" stroke-linecap="round"/><path d="M899 550 q12 -6 24 0" stroke="#e9ffff" stroke-width="2.5" fill="none" opacity=".45" stroke-linecap="round"/><path d="M0 720 Q400 690 800 730 T1600 710 L1600 1000 L0 1000 Z" fill="url(#sand)"/><g transform="translate(220 860) scale(1.2)"><path d="M0 0 L0 -110" stroke="#5a4a3a" stroke-width="5"/><path d="M-90 -100 Q0 -170 90 -100 Z" fill="#0b7f86"/><path d="M-90 -100 Q-45 -112 0 -100 Q45 -112 90 -100" fill="none" stroke="#00000022" stroke-width="3"/><rect x="-60" y="-8" width="80" height="12" rx="6" fill="#ffffff" opacity=".9"/></g><g transform="translate(470 820) scale(1)"><path d="M0 0 L0 -110" stroke="#5a4a3a" stroke-width="5"/><path d="M-90 -100 Q0 -170 90 -100 Z" fill="#e0a73a"/><path d="M-90 -100 Q-45 -112 0 -100 Q45 -112 90 -100" fill="none" stroke="#00000022" stroke-width="3"/><rect x="-60" y="-8" width="80" height="12" rx="6" fill="#ffffff" opacity=".9"/></g><g transform="translate(720 880) scale(1.3)"><path d="M0 0 L0 -110" stroke="#5a4a3a" stroke-width="5"/><path d="M-90 -100 Q0 -170 90 -100 Z" fill="#ffffff"/><path d="M-90 -100 Q-45 -112 0 -100 Q45 -112 90 -100" fill="none" stroke="#00000022" stroke-width="3"/><rect x="-60" y="-8" width="80" height="12" rx="6" fill="#ffffff" opacity=".9"/></g><g transform="translate(980 830) scale(1.05)"><path d="M0 0 L0 -110" stroke="#5a4a3a" stroke-width="5"/><path d="M-90 -100 Q0 -170 90 -100 Z" fill="#d55a4a"/><path d="M-90 -100 Q-45 -112 0 -100 Q45 -112 90 -100" fill="none" stroke="#00000022" stroke-width="3"/><rect x="-60" y="-8" width="80" height="12" rx="6" fill="#ffffff" opacity=".9"/></g><g transform="translate(1240 870) scale(1.25)"><path d="M0 0 L0 -110" stroke="#5a4a3a" stroke-width="5"/><path d="M-90 -100 Q0 -170 90 -100 Z" fill="#0f2240"/><path d="M-90 -100 Q-45 -112 0 -100 Q45 -112 90 -100" fill="none" stroke="#00000022" stroke-width="3"/><rect x="-60" y="-8" width="80" height="12" rx="6" fill="#ffffff" opacity=".9"/></g><g transform="translate(1460 820) scale(0.95)"><path d="M0 0 L0 -110" stroke="#5a4a3a" stroke-width="5"/><path d="M-90 -100 Q0 -170 90 -100 Z" fill="#0b7f86"/><path d="M-90 -100 Q-45 -112 0 -100 Q45 -112 90 -100" fill="none" stroke="#00000022" stroke-width="3"/><rect x="-60" y="-8" width="80" height="12" rx="6" fill="#ffffff" opacity=".9"/></g></svg>